<svg viewBox="0 0 44 44" xmlns="http://www.w3.org/2000/svg" xmlns:xlink="http://www.w3.org/1999/xlink" width="44.000000" height="44.000000" fill="none">
	<rect id="下载 5" width="44.000000" height="44.000000" x="0.000000" y="0.000000" />
	<rect id="矩形" width="44.000015" height="44.000004" x="0.000000" y="0.000000" rx="8.000000" fill="rgb(255,136,0)" />
	<path id="矢量 326" d="M27.8804 30.3209L16.2376 30.3209C16.1767 30.3209 16.1164 30.315 16.0567 30.3032C15.9969 30.2914 15.9389 30.2739 15.8826 30.2507C15.8263 30.2275 15.7728 30.1991 15.7221 30.1654C15.6714 30.1317 15.6244 30.0934 15.5812 30.0505C15.538 30.0076 15.4993 29.961 15.4653 29.9105C15.4312 29.86 15.4023 29.8067 15.3787 29.7506C15.3551 29.6945 15.3372 29.6366 15.3249 29.577C15.3126 29.5174 15.3062 29.4571 15.3058 29.3962C15.3058 28.8866 15.7251 28.4701 16.2375 28.4701L27.8804 28.4701C28.3928 28.4701 28.8121 28.8866 28.8121 29.3955C28.8117 29.4564 28.8054 29.5167 28.7931 29.5764C28.7809 29.6361 28.763 29.694 28.7394 29.7501C28.7158 29.8063 28.687 29.8596 28.6529 29.9101C28.6188 29.9606 28.5802 30.0073 28.537 30.0503C28.4938 30.0932 28.4468 30.1315 28.396 30.1652C28.3453 30.1989 28.2918 30.2274 28.2355 30.2506C28.1791 30.2738 28.1211 30.2914 28.0614 30.3032C28.0016 30.315 27.9413 30.3209 27.8804 30.3209M31.7514 23.3334C31.4921 23.3647 31.2319 23.3804 30.9707 23.3807C30.6236 23.3811 30.2787 23.3531 29.9362 23.2969C29.5936 23.2406 29.2579 23.1568 28.9291 23.0455C28.6003 22.9341 28.2828 22.7967 27.9765 22.6333C27.6703 22.4698 27.3794 22.2825 27.1039 22.0713C27.0197 22.0059 26.9272 21.956 26.8263 21.9214C26.7255 21.8869 26.6218 21.8696 26.5152 21.8696C26.4086 21.8696 26.3049 21.8869 26.204 21.9214C26.1032 21.956 26.0107 22.0059 25.9265 22.0713C25.6509 22.2825 25.36 22.4699 25.0537 22.6334C24.7474 22.7968 24.4298 22.9342 24.1009 23.0456C23.7721 23.1569 23.4363 23.2407 23.0937 23.2969C22.7511 23.3532 22.4062 23.3811 22.059 23.3807C21.7118 23.3811 21.3668 23.3532 21.0242 23.2969C20.6816 23.2407 20.3459 23.1569 20.017 23.0456C19.6881 22.9342 19.3705 22.7968 19.0642 22.6334C18.7579 22.4699 18.467 22.2825 18.1914 22.0713C18.1071 22.0059 18.0144 21.956 17.9135 21.9214C17.8125 21.8869 17.7087 21.8696 17.602 21.8696C17.4953 21.8696 17.3915 21.8869 17.2905 21.9214C17.1896 21.956 17.097 22.0059 17.0126 22.0713C16.6855 22.3218 16.3373 22.5385 15.968 22.7213C15.5987 22.9041 15.2153 23.0495 14.8177 23.1577C14.4202 23.2659 14.0159 23.3348 13.6049 23.3644C13.1939 23.3939 12.7839 23.3836 12.375 23.3334C12.3099 23.3251 12.2446 23.3237 12.1792 23.3293C12.1139 23.3349 12.0498 23.3472 11.987 23.3664C11.9243 23.3856 11.8642 23.4112 11.8069 23.4431C11.7496 23.4751 11.6963 23.5127 11.6469 23.556C11.5976 23.5993 11.5534 23.6473 11.5143 23.6999C11.4751 23.7526 11.442 23.8088 11.4148 23.8686C11.3876 23.9283 11.367 23.9902 11.353 24.0543C11.339 24.1184 11.3319 24.1833 11.3317 24.2489L11.3317 32.1245C11.3317 33.16 12.1554 34 13.1733 34L30.946 34C31.9625 34 32.7862 33.16 32.7862 32.1245L32.7862 24.2518C32.7862 23.6998 32.302 23.2635 31.7514 23.3341M34.755 15.58L32.6839 11.5515C32.6238 11.435 32.556 11.3232 32.4805 11.216C32.4051 11.1088 32.3226 11.0072 32.2332 10.9113C32.1438 10.8154 32.0483 10.7261 31.9466 10.6433C31.845 10.5606 31.7381 10.4851 31.6261 10.417C31.5141 10.3489 31.398 10.2888 31.2777 10.2366C31.1574 10.1844 31.0341 10.1407 30.9079 10.1055C30.7816 10.0702 30.6535 10.0438 30.5236 10.0261C30.3937 10.0085 30.2632 9.99975 30.1321 10L13.9858 10C13.8547 9.99974 13.7242 10.0084 13.5943 10.0261C13.4644 10.0437 13.3364 10.0701 13.2101 10.1054C13.0839 10.1406 12.9606 10.1843 12.8403 10.2364C12.7201 10.2885 12.6039 10.3486 12.4919 10.4167C12.3799 10.4848 12.2731 10.5602 12.1714 10.6429C12.0697 10.7257 11.9742 10.815 11.8848 10.9108C11.7954 11.0067 11.7129 11.1082 11.6374 11.2154C11.562 11.3225 11.4942 11.4343 11.434 11.5508L9.36298 15.5793C8.2131 18.1939 9.91498 21.285 12.7809 21.5151C12.9762 21.5315 13.1717 21.535 13.3675 21.5256C13.5633 21.5162 13.7576 21.494 13.9505 21.4591C14.1434 21.4241 14.3331 21.3766 14.5197 21.3166C14.7063 21.2567 14.8882 21.1847 15.0653 21.1008C15.2424 21.0168 15.4133 20.9216 15.5779 20.8152C15.7425 20.7087 15.8994 20.592 16.0486 20.4648C16.1978 20.3377 16.338 20.2014 16.4692 20.0558C16.6005 19.9102 16.7216 19.7566 16.8326 19.5951C16.854 19.5639 16.8772 19.5342 16.9022 19.5059C16.9272 19.4776 16.9538 19.4509 16.982 19.4259C17.0102 19.4008 17.0399 19.3775 17.0709 19.356C17.102 19.3345 17.1342 19.315 17.1676 19.2974C17.2011 19.2798 17.2354 19.2643 17.2707 19.2509C17.306 19.2375 17.342 19.2263 17.3786 19.2172C17.4153 19.2082 17.4524 19.2014 17.4899 19.1968C17.5273 19.1922 17.565 19.19 17.6027 19.19C17.6405 19.19 17.6781 19.1922 17.7156 19.1968C17.7531 19.2014 17.7901 19.2082 17.8268 19.2172C17.8635 19.2263 17.8994 19.2375 17.9347 19.2509C17.97 19.2643 18.0044 19.2798 18.0378 19.2974C18.0712 19.315 18.1034 19.3345 18.1345 19.356C18.1656 19.3775 18.1952 19.4008 18.2234 19.4259C18.2516 19.4509 18.2783 19.4776 18.3033 19.5059C18.3282 19.5342 18.3514 19.5639 18.3728 19.5951C18.4752 19.744 18.5862 19.8861 18.7058 20.0215C18.8254 20.157 18.9527 20.2847 19.0879 20.4046C19.223 20.5246 19.3649 20.6359 19.5135 20.7386C19.6622 20.8413 19.8165 20.9347 19.9765 21.0186C20.1364 21.1026 20.3009 21.1766 20.4699 21.2406C20.6389 21.3046 20.8111 21.3581 20.9865 21.4012C21.162 21.4443 21.3395 21.4766 21.5189 21.4981C21.6982 21.5196 21.8783 21.5302 22.059 21.5299C22.2397 21.5302 22.4197 21.5196 22.5991 21.4981C22.7785 21.4766 22.9559 21.4443 23.1314 21.4012C23.3069 21.3581 23.4791 21.3046 23.648 21.2406C23.817 21.1766 23.9815 21.1026 24.1415 21.0186C24.3014 20.9347 24.4558 20.8413 24.6044 20.7386C24.753 20.6359 24.8949 20.5245 25.03 20.4046C25.1652 20.2846 25.2925 20.157 25.4121 20.0215C25.5318 19.8861 25.6427 19.744 25.7451 19.5951C25.7664 19.5638 25.7896 19.534 25.8145 19.5056C25.8395 19.4772 25.8661 19.4504 25.8943 19.4252C25.9225 19.4001 25.9521 19.3767 25.9832 19.3551C26.0142 19.3336 26.0465 19.3139 26.0799 19.2963C26.1134 19.2786 26.1478 19.2631 26.1831 19.2496C26.2184 19.2361 26.2545 19.2249 26.2912 19.2158C26.3279 19.2067 26.365 19.1998 26.4025 19.1953C26.4401 19.1907 26.4777 19.1884 26.5155 19.1884C26.5534 19.1884 26.591 19.1907 26.6286 19.1953C26.6661 19.1998 26.7032 19.2067 26.7399 19.2158C26.7766 19.2249 26.8126 19.2361 26.848 19.2496C26.8833 19.2631 26.9177 19.2786 26.9511 19.2963C26.9846 19.3139 27.0168 19.3336 27.0479 19.3551C27.0789 19.3767 27.1086 19.4001 27.1368 19.4252C27.165 19.4504 27.1916 19.4772 27.2166 19.5056C27.2415 19.534 27.2647 19.5638 27.286 19.5951C27.397 19.7566 27.5181 19.9101 27.6493 20.0557C27.7805 20.2013 27.9207 20.3376 28.0699 20.4647C28.2191 20.5918 28.3759 20.7086 28.5405 20.815C28.7051 20.9215 28.8759 21.0166 29.053 21.1006C29.2301 21.1845 29.4119 21.2565 29.5985 21.3165C29.7851 21.3764 29.9748 21.4239 30.1676 21.4589C30.3604 21.4939 30.5547 21.5161 30.7505 21.5255C30.9462 21.5349 31.1418 21.5314 31.3371 21.5151C34.203 21.285 35.9041 18.1939 34.755 15.5786" fill="rgb(255,255,255)" fill-rule="nonzero" />
</svg>
