<svg viewBox="0 0 20 20" xmlns="http://www.w3.org/2000/svg" xmlns:xlink="http://www.w3.org/1999/xlink" width="20.000000" height="20.000000" fill="none" customFrame="url(#clipPath_3)">
	<defs>
		<clipPath id="clipPath_3">
			<rect width="20.000000" height="20.000000" x="0.000000" y="0.000000" rx="4.000000" fill="rgb(255,255,255)" />
		</clipPath>
	</defs>
	<rect id="组合 4694" width="20.000000" height="20.000000" x="0.000000" y="0.000000" rx="4.000000" fill="rgb(92,179,0)" />
	<g id="ic_gts_data_model-数据模型/base/ic_gts_data_model">
		<path id="path1" d="M1.56455 9.99313C1.56455 8.67497 1.55994 7.35682 1.56455 6.03866C1.5619 5.40081 1.6403 4.7652 1.79786 4.14711C2.14322 2.83884 2.99541 2.06244 4.30236 1.76124C4.95768 1.61966 5.62702 1.55332 6.29739 1.56352C8.82517 1.56352 11.3532 1.56352 13.8814 1.56352C14.5199 1.55956 15.1565 1.63258 15.7776 1.78102C17.1241 2.11056 17.9321 2.9634 18.2399 4.30529C18.3783 4.93948 18.4444 5.58731 18.4369 6.23639C18.4369 8.79141 18.4369 11.3467 18.4369 13.9021C18.4404 14.5345 18.3676 15.1649 18.2201 15.7798C17.8906 17.127 17.0338 17.9311 15.6919 18.2389C15.0365 18.3799 14.3672 18.4462 13.6969 18.4366C11.1796 18.4366 8.6626 18.4366 6.1458 18.4366C5.50242 18.4418 4.86073 18.3699 4.23447 18.2224C2.88205 17.8928 2.07006 17.036 1.76293 15.6876C1.60607 15.0021 1.56455 14.3147 1.56455 13.6214C1.56455 12.4122 1.56455 11.2028 1.56455 9.99313Z" fill="rgb(255,255,255)" fill-opacity="0" fill-rule="nonzero" />
		<path id="path1" d="M1.56455 6.03866C1.5619 5.40081 1.6403 4.7652 1.79786 4.14711C2.14322 2.83884 2.99541 2.06244 4.30236 1.76124C4.95768 1.61966 5.62702 1.55332 6.29739 1.56352C8.82517 1.56352 11.3532 1.56352 13.8814 1.56352C14.5199 1.55956 15.1565 1.63258 15.7776 1.78102C17.1241 2.11056 17.9321 2.9634 18.2399 4.30529C18.3783 4.93948 18.4444 5.58731 18.4369 6.23639C18.4369 8.79141 18.4369 11.3467 18.4369 13.9021C18.4404 14.5345 18.3676 15.1649 18.2201 15.7798C17.8906 17.127 17.0338 17.9311 15.6919 18.2389C15.0365 18.3799 14.3672 18.4462 13.6969 18.4366C11.1796 18.4366 8.6626 18.4366 6.1458 18.4366C5.50242 18.4418 4.86073 18.3699 4.23447 18.2224C2.88205 17.8928 2.07006 17.036 1.76293 15.6876C1.60607 15.0021 1.56455 14.3147 1.56455 13.6214C1.56455 12.4122 1.56455 11.2028 1.56455 9.99313C1.56455 8.67497 1.55994 7.35682 1.56455 6.03866Z" fill-rule="nonzero" stroke="rgb(255,255,255)" stroke-opacity="0" stroke-width="1.125" />
		<path id="path2" d="M1.56455 6.03866C1.5619 5.40081 1.6403 4.7652 1.79786 4.14711C2.14322 2.83884 2.99541 2.06244 4.30236 1.76124C4.95768 1.61966 5.62702 1.55332 6.29739 1.56352C8.82517 1.56352 11.3532 1.56352 13.8814 1.56352C14.5199 1.55956 15.1565 1.63258 15.7776 1.78102C17.1241 2.11056 17.9321 2.9634 18.2399 4.30529C18.3783 4.93948 18.4444 5.58731 18.4369 6.23639C18.4369 8.79141 18.4369 11.3467 18.4369 13.9021C18.4404 14.5345 18.3676 15.1649 18.2201 15.7798C17.8906 17.127 17.0338 17.9311 15.6919 18.2389C15.0365 18.3799 14.3672 18.4462 13.6969 18.4366C11.1796 18.4366 8.6626 18.4366 6.1458 18.4366C5.50242 18.4418 4.86073 18.3699 4.23447 18.2224C2.88205 17.8928 2.07006 17.036 1.76293 15.6876C1.60607 15.0021 1.56455 14.3147 1.56455 13.6214C1.56455 12.4122 1.56455 11.2028 1.56455 9.99313C1.56455 8.67497 1.55994 7.35682 1.56455 6.03866Z" opacity="0.200000003" fill-rule="nonzero" stroke="rgb(255,255,255)" stroke-opacity="0" stroke-width="1.125" />
		<circle id="path3" cx="10" cy="10" r="9" fill="rgb(255,255,255)" fill-opacity="0" />
		<path id="path4" d="M13.9374 11.6874L16.2665 12.6857C16.6472 12.8488 16.8236 13.2897 16.6604 13.6705C16.5846 13.8475 16.4435 13.9885 16.2665 14.0644L10.8863 16.3702C10.3203 16.6127 9.67966 16.6127 9.11368 16.3702L3.7335 14.0644C3.35278 13.9012 3.17641 13.4603 3.33958 13.0796C3.41544 12.9026 3.55649 12.7615 3.7335 12.6857L6.062 11.6874L9.11368 12.9952C9.64637 13.2235 10.2452 13.2369 10.7857 13.0354L10.8863 12.9952L13.9374 11.6874Z" fill="rgb(255,255,255)" fill-opacity="0" fill-rule="evenodd" />
		<path id="path4" d="M16.2665 12.6857C16.6472 12.8488 16.8236 13.2897 16.6604 13.6705C16.5846 13.8475 16.4435 13.9885 16.2665 14.0644L10.8863 16.3702C10.3203 16.6127 9.67966 16.6127 9.11368 16.3702L3.7335 14.0644C3.35278 13.9012 3.17641 13.4603 3.33958 13.0796C3.41544 12.9026 3.55649 12.7615 3.7335 12.6857L6.062 11.6874L9.11368 12.9952C9.64637 13.2235 10.2452 13.2369 10.7857 13.0354L10.8863 12.9952L13.9374 11.6874L16.2665 12.6857Z" fill-rule="evenodd" stroke="rgb(255,255,255)" stroke-linecap="round" stroke-linejoin="round" stroke-width="1.125" />
		<path id="path5" d="M13.9374 8.31244L16.2665 9.31065C16.6472 9.47382 16.8236 9.91473 16.6604 10.2955C16.5846 10.4725 16.4435 10.6135 16.2665 10.6894L10.8863 12.9952C10.3203 13.2377 9.67966 13.2377 9.11368 12.9952L3.7335 10.6894C3.35278 10.5262 3.17641 10.0853 3.33958 9.70457C3.41544 9.52756 3.55649 9.38651 3.7335 9.31065L6.062 8.31244L9.11368 9.62016C9.64637 9.84846 10.2452 9.86189 10.7857 9.66045L10.8863 9.62016L13.9374 8.31244Z" fill="rgb(255,255,255)" fill-opacity="0" fill-rule="evenodd" />
		<path id="path5" d="M16.2665 9.31065C16.6472 9.47382 16.8236 9.91473 16.6604 10.2955C16.5846 10.4725 16.4435 10.6135 16.2665 10.6894L10.8863 12.9952C10.3203 13.2377 9.67966 13.2377 9.11368 12.9952L3.7335 10.6894C3.35278 10.5262 3.17641 10.0853 3.33958 9.70457C3.41544 9.52756 3.55649 9.38651 3.7335 9.31065L6.062 8.31244L9.11368 9.62016C9.64637 9.84846 10.2452 9.86189 10.7857 9.66045L10.8863 9.62016L13.9374 8.31244L16.2665 9.31065Z" fill-rule="evenodd" stroke="rgb(255,255,255)" stroke-linecap="round" stroke-linejoin="round" stroke-width="1.125" />
		<path id="path6" d="M10.8863 3.62986L16.2665 5.93565C16.6472 6.09882 16.8236 6.53973 16.6604 6.92045C16.5846 7.09746 16.4435 7.23851 16.2665 7.31437L10.8863 9.62016C10.3203 9.86272 9.67966 9.86272 9.11368 9.62016L3.7335 7.31437C3.35278 7.1512 3.17641 6.71029 3.33958 6.32957C3.41544 6.15256 3.55649 6.01151 3.7335 5.93565L9.11368 3.62986C9.67966 3.3873 10.3203 3.3873 10.8863 3.62986Z" fill="rgb(255,255,255)" fill-opacity="0" fill-rule="evenodd" />
		<path id="path6" d="M16.2665 5.93565C16.6472 6.09882 16.8236 6.53973 16.6604 6.92045C16.5846 7.09746 16.4435 7.23851 16.2665 7.31437L10.8863 9.62016C10.3203 9.86272 9.67966 9.86272 9.11368 9.62016L3.7335 7.31437C3.35278 7.1512 3.17641 6.71029 3.33958 6.32957C3.41544 6.15256 3.55649 6.01151 3.7335 5.93565L9.11368 3.62986C9.67966 3.3873 10.3203 3.3873 10.8863 3.62986L16.2665 5.93565Z" fill-rule="evenodd" stroke="rgb(255,255,255)" stroke-linecap="round" stroke-linejoin="round" stroke-width="1.125" />
		<path id="path7" d="M13.9374 12.4374L16.2665 13.4357C16.6472 13.5988 16.8236 14.0397 16.6604 14.4205C16.5846 14.5975 16.4435 14.7385 16.2665 14.8144L10.8863 17.1202C10.3203 17.3627 9.67966 17.3627 9.11368 17.1202L3.7335 14.8144C3.35278 14.6512 3.17641 14.2103 3.33958 13.8296C3.41544 13.6526 3.55649 13.5115 3.7335 13.4357L6.062 12.4374L9.11368 13.7452C9.64637 13.9735 10.2452 13.9869 10.7857 13.7854L10.8863 13.7452L13.9374 12.4374Z" fill="rgb(255,255,255)" fill-opacity="0" fill-rule="evenodd" />
		<path id="path7" d="M16.2665 13.4357C16.6472 13.5988 16.8236 14.0397 16.6604 14.4205C16.5846 14.5975 16.4435 14.7385 16.2665 14.8144L10.8863 17.1202C10.3203 17.3627 9.67966 17.3627 9.11368 17.1202L3.7335 14.8144C3.35278 14.6512 3.17641 14.2103 3.33958 13.8296C3.41544 13.6526 3.55649 13.5115 3.7335 13.4357L6.062 12.4374L9.11368 13.7452C9.64637 13.9735 10.2452 13.9869 10.7857 13.7854L10.8863 13.7452L13.9374 12.4374L16.2665 13.4357Z" fill-rule="evenodd" stroke="rgb(255,255,255)" stroke-opacity="0" stroke-linecap="round" stroke-linejoin="round" stroke-width="1.125" />
		<path id="path8" d="M13.9374 8.31244L16.2665 9.31065C16.6472 9.47382 16.8236 9.91473 16.6604 10.2955C16.5846 10.4725 16.4435 10.6135 16.2665 10.6894L10.8863 12.9952C10.3203 13.2377 9.67966 13.2377 9.11368 12.9952L3.7335 10.6894C3.35278 10.5262 3.17641 10.0853 3.33958 9.70457C3.41544 9.52756 3.55649 9.38651 3.7335 9.31065L6.062 8.31244L9.11368 9.62016C9.64637 9.84846 10.2452 9.86189 10.7857 9.66045L10.8863 9.62016L13.9374 8.31244Z" fill="rgb(255,255,255)" fill-opacity="0" fill-rule="evenodd" />
		<path id="path8" d="M16.2665 9.31065C16.6472 9.47382 16.8236 9.91473 16.6604 10.2955C16.5846 10.4725 16.4435 10.6135 16.2665 10.6894L10.8863 12.9952C10.3203 13.2377 9.67966 13.2377 9.11368 12.9952L3.7335 10.6894C3.35278 10.5262 3.17641 10.0853 3.33958 9.70457C3.41544 9.52756 3.55649 9.38651 3.7335 9.31065L6.062 8.31244L9.11368 9.62016C9.64637 9.84846 10.2452 9.86189 10.7857 9.66045L10.8863 9.62016L13.9374 8.31244L16.2665 9.31065Z" fill-rule="evenodd" stroke="rgb(255,255,255)" stroke-opacity="0" stroke-linecap="round" stroke-linejoin="round" stroke-width="1.125" />
		<path id="path9" d="M10.8863 2.87986L16.2665 5.18565C16.6472 5.34882 16.8236 5.78973 16.6604 6.17045C16.5846 6.34746 16.4435 6.48851 16.2665 6.56437L10.8863 8.87016C10.3203 9.11272 9.67966 9.11272 9.11368 8.87016L3.7335 6.56437C3.35278 6.4012 3.17641 5.96029 3.33958 5.57957C3.41544 5.40256 3.55649 5.26151 3.7335 5.18565L9.11368 2.87986C9.67966 2.6373 10.3203 2.6373 10.8863 2.87986Z" fill="rgb(255,255,255)" fill-opacity="0" fill-rule="evenodd" />
		<path id="path9" d="M16.2665 5.18565C16.6472 5.34882 16.8236 5.78973 16.6604 6.17045C16.5846 6.34746 16.4435 6.48851 16.2665 6.56437L10.8863 8.87016C10.3203 9.11272 9.67966 9.11272 9.11368 8.87016L3.7335 6.56437C3.35278 6.4012 3.17641 5.96029 3.33958 5.57957C3.41544 5.40256 3.55649 5.26151 3.7335 5.18565L9.11368 2.87986C9.67966 2.6373 10.3203 2.6373 10.8863 2.87986L16.2665 5.18565Z" fill-rule="evenodd" stroke="rgb(255,255,255)" stroke-opacity="0" stroke-linecap="round" stroke-linejoin="round" stroke-width="1.125" />
	</g>
</svg>
