<svg viewBox="0 0 16 16" xmlns="http://www.w3.org/2000/svg" xmlns:xlink="http://www.w3.org/1999/xlink" width="16.000000" height="16.000000" fill="none">
	<rect id="svg 1" width="16.000000" height="16.000000" x="0.000000" y="0.000000" />
	<path id="合并" d="M7.59812 6.08736L7.39012 6.08736C6.6177 6.08736 5.94828 5.46943 5.94828 4.64552L5.94828 3.44184C5.94828 2.66943 6.56621 2 7.39012 2L8.64529 2C9.4177 2 10.0871 2.61793 10.0871 3.44184L10.0871 4.69701C10.0356 5.46943 9.4177 6.08736 8.64529 6.08736L8.42202 6.08736L8.42202 7.45497L11.9457 7.45497C12.7182 7.45497 13.3876 8.0729 13.3876 8.89681L13.3876 10.0945L13.5582 10.0945C14.3306 10.0945 15 10.7124 15 11.5364L15 12.7915C14.9485 13.6154 14.3306 14.2334 13.5582 14.2334L12.303 14.2334C11.5306 14.2334 10.8612 13.6154 10.8612 12.7915L10.8612 11.5364C10.8612 10.7639 11.4791 10.0945 12.303 10.0945L12.5122 10.0945L12.5122 8.84532C12.5122 8.48486 12.2032 8.17589 11.8943 8.17589L8.42202 8.17589L8.42202 10.0945L8.62759 10.0945C9.4 10.0945 10.0694 10.7124 10.0694 11.5364L10.0694 12.7915C10.0179 13.6154 9.4 14.2334 8.62759 14.2334L7.37241 14.2334C6.6 14.2334 5.93058 13.6154 5.93058 12.7915L5.93058 11.5364C5.93058 10.7639 6.54851 10.0945 7.37241 10.0945L7.59812 10.0945L7.59812 8.17589L4.36966 8.17589C4.0092 8.17589 3.75172 8.48486 3.75172 8.84532L3.75172 10.0955C4.50077 10.1239 5.13885 10.732 5.13885 11.5364L5.13885 12.7915C5.08736 13.6154 4.46943 14.2334 3.69701 14.2334L2.44184 14.2334C1.66943 14.2334 1 13.6154 1 12.7915L1 11.5364C1 10.7639 1.61793 10.0945 2.44184 10.0945L2.97931 10.0945L2.97931 8.89681C2.97931 8.1244 3.59724 7.45497 4.42115 7.45497L7.59812 7.45497L7.59812 6.08736ZM7.39012 2.77241C7.02966 2.77241 6.77218 3.08138 6.77218 3.39035L6.77218 4.64552C6.77218 5.00598 7.08115 5.26345 7.39012 5.26345L8.64529 5.26345C9.00575 5.26345 9.26322 4.95448 9.26322 4.64552L9.26322 3.44184C9.26322 3.08138 8.95425 2.82391 8.64529 2.82391L7.39012 2.82391L7.39012 2.77241ZM3.60807 10.9184C3.47564 10.9225 3.27926 10.9224 3.1413 10.9184L2.44184 10.9184C2.08138 10.9184 1.82391 11.2274 1.82391 11.5364L1.82391 12.7915C1.82391 13.152 2.13287 13.4095 2.44184 13.4095L3.69701 13.4095C4.05747 13.4095 4.31494 13.1005 4.31494 12.7915L4.31494 11.5364C4.31494 11.1759 4.00598 10.9184 3.69701 10.9184L3.60807 10.9184ZM6.75448 11.5364C6.75448 11.2274 7.01196 10.9184 7.37241 10.9184L8.62759 10.9184C8.93655 10.9184 9.24552 11.1759 9.24552 11.5364L9.24552 12.7915C9.24552 13.1005 8.98805 13.4095 8.62759 13.4095L7.37241 13.4095C7.06345 13.4095 6.75448 13.152 6.75448 12.7915L6.75448 11.5364ZM12.303 10.9184C11.9425 10.9184 11.6851 11.2274 11.6851 11.5364L11.6851 12.7915C11.6851 13.152 11.994 13.4095 12.303 13.4095L13.5582 13.4095C13.9186 13.4095 14.1761 13.1005 14.1761 12.7915L14.1761 11.5364C14.1761 11.1759 13.8671 10.9184 13.5582 10.9184L12.303 10.9184Z" fill="rgb(25,25,25)" fill-rule="evenodd" />
</svg>
